<?xml version="1.0" standalone="no"?>
<!DOCTYPE svg PUBLIC "-//W3C//DTD SVG 20010904//EN"
 "http://www.w3.org/TR/2001/REC-SVG-20010904/DTD/svg10.dtd">
<svg version="1.0" xmlns="http://www.w3.org/2000/svg"
 width="134.000000pt" height="134.000000pt" viewBox="0 0 134.000000 134.000000"
 preserveAspectRatio="xMidYMid meet">
<metadata>
Created by potrace 1.11, written by Peter Selinger 2001-2013
</metadata>
<g transform="translate(0.000000,134.000000) scale(0.100000,-0.100000)"
fill="#000000" stroke="none">
<path d="M445 1292 c-95 -36 -210 -108 -267 -168 -60 -65 -129 -180 -153 -257
-36 -113 -36 -282 0 -396 54 -170 185 -313 365 -400 l75 -36 181 0 181 0 84
42 c180 90 307 232 359 402 28 90 28 292 0 382 -52 170 -179 312 -359 402
l-84 42 -166 3 c-141 2 -174 -1 -216 -16z m330 -17 c184 -39 338 -162 429
-343 80 -159 79 -368 -3 -529 -78 -155 -211 -271 -371 -323 -106 -35 -263 -35
-369 -1 -85 28 -199 99 -260 162 -53 54 -114 155 -142 234 -30 84 -37 247 -15
335 36 145 118 268 235 354 152 112 317 149 496 111z"/>
<path d="M590 1255 c-8 -2 -32 -6 -52 -10 -24 -4 -38 -11 -38 -20 0 -8 4 -15
9 -15 5 0 11 -13 15 -30 8 -45 36 -39 37 8 l2 37 6 -35 c6 -35 7 -35 59 -36
29 -1 55 3 58 8 4 7 9 7 13 0 3 -5 25 -12 48 -15 23 -4 58 -13 77 -21 27 -11
36 -12 37 -3 0 7 4 2 9 -10 6 -13 18 -23 30 -23 11 0 20 -4 20 -10 0 -5 5 -10
10 -10 6 0 24 -16 41 -35 32 -36 49 -38 49 -5 0 10 7 25 15 34 18 18 19 32 3
42 -6 4 -22 -5 -36 -22 -24 -28 -25 -28 -8 -2 9 15 16 34 16 43 0 19 -34 20
-50 0 -7 -8 -17 -12 -22 -9 -5 3 -1 12 9 19 15 11 15 15 4 29 -16 19 -42 21
-60 4 -11 -11 -12 -9 -2 9 9 17 8 22 -6 27 -9 4 -20 1 -25 -6 -6 -10 -8 -9 -8
3 0 22 -50 35 -61 17 -7 -10 -9 -9 -9 3 0 34 -67 40 -72 8 -3 -25 -48 -47 -48
-25 0 9 7 12 20 9 25 -7 27 18 4 38 -12 10 -20 10 -35 1 -11 -7 -19 -8 -19 -2
0 10 -10 11 -40 5z"/>
<path d="M423 1213 c-7 -2 -13 -11 -13 -18 0 -8 -7 -11 -17 -9 -10 3 -27 -2
-38 -10 -18 -14 -19 -17 -5 -42 24 -43 48 -53 68 -29 9 11 25 19 35 17 13 -3
18 1 16 15 -2 10 1 24 6 32 5 10 4 16 -3 19 -6 2 -8 10 -5 18 5 14 -18 18 -44
7z"/>
<path d="M280 1125 c0 -8 -3 -14 -7 -13 -12 4 -63 -44 -57 -54 3 -4 2 -8 -3
-8 -4 0 -15 -4 -23 -10 -12 -7 -12 -12 4 -29 11 -12 14 -21 8 -21 -7 0 -12 5
-12 10 0 6 -6 10 -14 10 -16 0 -31 -34 -21 -50 3 -5 -1 -10 -9 -10 -14 0 -36
-28 -36 -47 0 -5 12 -14 28 -21 l27 -11 -35 2 c-29 2 -35 -1 -35 -18 0 -11 10
-24 22 -31 13 -6 20 -14 16 -17 -3 -4 -12 -2 -20 4 -10 9 -17 8 -28 -1 -22
-19 -15 -52 15 -67 l25 -13 -32 0 c-45 0 -46 -34 -2 -49 50 -17 69 -14 68 12
-1 49 10 105 31 152 11 27 19 57 17 66 -3 11 0 16 8 12 8 -2 19 6 26 19 7 13
25 35 41 50 15 14 28 29 28 32 0 4 -12 19 -27 33 -26 23 -26 24 -3 9 61 -40
70 -34 41 29 -21 44 -41 59 -41 30z"/>
<path d="M503 1110 c-215 -78 -351 -299 -315 -511 29 -167 135 -297 299 -365
32 -13 47 -23 33 -21 -14 2 -36 9 -49 16 -19 11 -25 11 -32 0 -7 -11 -9 -10
-9 3 0 15 -27 38 -44 38 -2 0 -14 -16 -27 -36 -22 -36 -22 -37 -4 -50 26 -19
40 -17 59 8 16 23 16 23 6 1 -16 -34 -13 -38 43 -56 69 -22 75 -21 80 5 4 21
4 20 6 -3 2 -38 55 -56 64 -22 4 17 5 17 6 1 1 -15 10 -17 63 -14 34 2 64 8
65 13 2 5 17 7 33 5 27 -4 30 -2 31 24 1 19 3 23 6 10 4 -14 11 -17 36 -12 40
8 44 13 29 36 -18 29 -15 38 4 12 17 -25 52 -29 60 -7 7 16 -12 72 -27 81 -7
4 -47 -13 -59 -26 -6 -7 -90 -35 -105 -35 -5 0 -9 -15 -9 -33 1 -21 -3 -32
-12 -32 -9 0 -14 11 -14 29 0 16 -6 31 -12 33 -7 3 6 8 29 11 153 25 305 166
354 329 49 161 -3 342 -131 461 -33 31 -90 71 -128 89 -61 29 -77 32 -172 35
-83 2 -116 -1 -157 -17z m86 -903 c-2 -1 -12 -9 -21 -16 -15 -12 -18 -11 -18
3 0 10 8 16 22 16 12 0 19 -1 17 -3z m98 -50 l1 -42 -10 38 c-12 43 -47 54
-49 15 -1 -21 -2 -21 -6 -3 -3 11 -10 23 -17 27 -6 4 9 8 34 8 l45 0 2 -43z
m-207 3 c0 -5 -2 -10 -4 -10 -3 0 -8 5 -11 10 -3 6 -1 10 4 10 6 0 11 -4 11
-10z"/>
<path d="M1063 1009 c-18 -12 -33 -25 -33 -29 0 -16 54 -90 65 -90 8 0 10 -10
7 -26 -2 -14 0 -29 6 -33 6 -3 13 -26 16 -51 2 -25 5 -47 6 -50 1 -3 2 -22 2
-42 -1 -35 0 -37 36 -41 l37 -4 -37 -1 c-26 -1 -38 -7 -38 -17 0 -8 8 -15 18
-16 12 0 11 -3 -7 -10 -18 -7 -22 -15 -19 -34 3 -13 2 -26 -2 -27 -4 -2 -10
-15 -13 -30 -6 -24 -3 -27 38 -41 48 -17 49 -16 59 26 5 23 3 27 -16 28 -22 1
-22 1 2 8 28 8 40 48 18 62 -10 7 -10 9 3 9 13 0 17 11 18 50 0 37 -3 50 -13
50 -8 0 -16 -4 -18 -10 -2 -5 -9 -6 -17 -1 -10 6 -5 11 18 16 26 5 32 11 29
28 -2 16 -11 23 -30 25 -33 4 -38 19 -5 18 33 -1 31 46 -3 54 -21 5 -22 7 -7
13 18 7 24 37 7 37 -5 0 -9 6 -7 13 1 7 -8 12 -21 11 -16 0 -19 3 -12 10 14
14 13 42 -2 58 -7 8 -18 22 -24 33 -15 27 -25 27 -61 4z"/>
<path d="M121 641 c-8 -5 -19 -7 -26 -5 -21 8 -40 -25 -28 -46 7 -10 9 -27 7
-38 -3 -11 1 -26 9 -33 8 -7 12 -22 9 -33 -5 -17 -1 -18 26 -13 19 4 32 2 34
-5 2 -6 12 -9 21 -5 18 7 23 42 7 52 -5 3 -10 17 -10 30 0 13 -5 27 -10 30 -8
5 -8 11 0 20 15 18 -19 59 -39 46z"/>
<path d="M187 368 c-18 -19 -18 -21 -1 -39 22 -24 36 -24 59 1 17 19 17 21 0
40 -22 25 -35 24 -58 -2z"/>
<path d="M1045 370 c-17 -19 -17 -21 0 -40 23 -25 37 -25 59 -1 17 18 17 20
-3 40 -26 26 -33 26 -56 1z"/>
</g>
</svg>
